<svg width="80" height="284" viewBox="0 0 80 284" fill="none" xmlns="http://www.w3.org/2000/svg">
<g clip-path="url(#clip0_26_6)">
<path d="M46.488 224.768C45.0373 219.477 42.3066 215.424 38.296 212.608C34.2 209.707 29.464 208.256 24.088 208.256C20.8453 208.341 17.816 209.024 15 210.304C12.0986 211.499 9.58129 213.248 7.44796 215.552C5.31462 217.856 3.65062 220.629 2.45595 223.872C1.17596 227.115 0.535956 230.827 0.535956 235.008C0.535956 239.104 1.17596 242.816 2.45595 246.144C3.65062 249.387 5.31462 252.16 7.44796 254.464C9.58129 256.768 12.0986 258.56 15 259.84C17.816 261.035 20.8453 261.632 24.088 261.632C29.5493 261.632 34.2853 260.267 38.296 257.536C42.2213 254.72 44.9093 250.624 46.36 245.248C47.8106 251.648 50.6693 256.555 54.936 259.968C59.2026 263.296 64.664 264.96 71.32 264.96C75.16 264.96 78.6586 264.235 81.816 262.784C84.9733 261.248 87.6613 259.157 89.88 256.512C92.0133 253.781 93.6773 250.624 94.872 247.04C96.0666 243.371 96.664 239.36 96.664 235.008C96.664 230.571 96.0666 226.517 94.872 222.848C93.6773 219.179 92.0133 216.021 89.88 213.376C87.6613 210.731 84.9733 208.683 81.816 207.232C78.6586 205.696 75.16 204.928 71.32 204.928C64.7493 204.928 59.288 206.635 54.936 210.048C50.584 213.461 47.768 218.368 46.488 224.768ZM24.088 257.408C18.2 257.408 13.5066 255.403 10.008 251.392C6.42396 247.381 4.63196 241.92 4.63196 235.008C4.63196 232.021 5.05862 229.163 5.91196 226.432C6.67996 223.701 7.91729 221.312 9.62395 219.264C11.2453 217.216 13.2933 215.595 15.768 214.4C18.1573 213.205 20.9733 212.608 24.216 212.608C27.544 212.608 30.488 213.205 33.048 214.4C35.5226 215.509 37.656 217.088 39.448 219.136C41.1546 221.099 42.4773 223.445 43.416 226.176C44.2693 228.907 44.696 231.851 44.696 235.008C44.696 238.763 44.1413 242.048 43.032 244.864C41.9226 247.68 40.4293 250.027 38.552 251.904C36.5893 253.696 34.3706 255.061 31.896 256C29.4213 256.939 26.8186 257.408 24.088 257.408ZM92.696 235.008C92.696 238.763 92.184 242.219 91.16 245.376C90.136 248.533 88.6853 251.264 86.808 253.568C84.8453 255.787 82.5413 257.536 79.896 258.816C77.2506 260.096 74.3493 260.736 71.192 260.736C66.4986 260.736 62.7866 259.968 60.056 258.432C57.24 256.811 54.936 254.635 53.144 251.904C51.5226 249.429 50.3706 246.699 49.688 243.712C49.0053 240.725 48.664 237.824 48.664 235.008C48.664 232.363 48.92 229.76 49.432 227.2C49.944 224.64 50.7973 222.293 51.992 220.16C53.1013 217.941 54.552 216.021 56.344 214.4C58.136 212.693 60.3546 211.328 63 210.304C65.816 209.536 68.5466 209.195 71.192 209.28C74.8613 209.365 78.0613 210.133 80.792 211.584C83.4373 212.949 85.656 214.827 87.448 217.216C89.24 219.605 90.5626 222.336 91.416 225.408C92.2693 228.48 92.696 231.68 92.696 235.008Z" fill="black"/>
<path d="M50.584 133.75L87.704 96.63L84.504 93.4299L47.384 130.55L10.2639 93.4299L7.06395 96.63L44.184 133.75L7.06395 170.742L10.392 174.07L47.384 136.95L84.504 174.07L87.704 170.87L50.584 133.75Z" fill="black"/>
<path d="M26.7759 59.638L26.7759 55.414C19.0106 54.39 13.3786 51.8299 9.87995 47.7339C6.38128 43.6379 4.46128 38.262 4.11995 31.606C4.11995 28.8753 4.50395 26.23 5.27195 23.67C6.03995 21.0246 7.23461 18.6353 8.85595 16.502C10.4773 14.3686 12.6106 12.6619 15.2559 11.3819C17.8159 10.1019 20.8879 9.46196 24.472 9.46196C27.7146 9.46196 30.4879 10.0593 32.7919 11.254C35.0106 12.3633 37.1013 14.0699 39.0639 16.3739C41.0266 18.6779 42.5626 21.4939 43.6719 24.8219C44.7813 28.1499 45.2933 31.862 45.2079 35.958L48.92 35.958C48.7493 30.838 49.2613 26.358 50.4559 22.518C51.5653 18.5926 53.1013 15.5206 55.0639 13.302C57.0266 11.0833 59.2026 9.50464 61.5919 8.56598C63.8959 7.54198 66.7546 6.98731 70.1679 6.90197C72.4719 6.90197 75.0319 7.45664 77.848 8.56598C80.664 9.67531 83.1386 11.382 85.272 13.686C87.4053 15.99 89.1546 18.6353 90.5199 21.6219C91.7999 24.6086 92.4826 28.3206 92.568 32.7579C92.568 37.3659 91.8426 41.2913 90.392 44.5339C88.856 47.6913 86.8506 50.2939 84.376 52.3419C81.9013 54.5606 79.5546 56.0966 77.336 56.9499C75.032 57.7179 73.0266 58.1873 71.32 58.358L71.32 62.8379C79.4266 61.4726 85.656 58.2726 90.008 53.238C94.2746 48.118 96.4079 41.2913 96.4079 32.7579C96.4079 29.0033 95.8106 25.334 94.6159 21.75C93.3359 18.166 91.5439 14.9659 89.2399 12.1499C86.9359 9.33395 84.1626 7.07263 80.9199 5.36596C77.6773 3.57396 74.0506 2.67794 70.04 2.67794C63.7253 2.50728 58.4773 4.34197 54.2959 8.18197C52.2479 10.0593 50.6266 12.1926 49.432 14.582C48.1519 16.886 47.2133 19.2326 46.6159 21.6219C44.6533 16.5873 42.0506 12.7473 38.8079 10.1019C35.5653 7.37128 31.1706 5.79263 25.6239 5.36597C20.5039 5.36597 16.4506 6.0913 13.4639 7.54196C10.4773 8.90729 8.00261 10.8273 6.03994 13.302C4.07728 15.7766 2.66928 18.5926 1.81595 21.75C0.877281 24.9073 0.407949 28.15 0.407949 31.478C0.407949 35.4033 1.04795 39.03 2.32795 42.358C3.52261 45.686 5.27195 48.5873 7.57595 51.062C9.87995 53.5366 12.6533 55.542 15.8959 57.078C19.1386 58.5286 22.7653 59.382 26.7759 59.638Z" fill="black"/>
</g>
<defs>
<clipPath id="clip0_26_6">
<rect width="80" height="284" fill="white"/>
</clipPath>
</defs>
</svg>
